# xmcd CD database file
#
# Track frame offsets:
#	150
#	26649
#	52228
#	87902
#	111114
#	136188
#	153944
#	189148
#	223220
#
# Disc length: 3331 seconds
#
# Revision: 0
# Processed by: cddbd v1.5.2PL0 Copyright (c) Steve Scherf et al.
# Submitted via: CDex 1.51
#
DISCID=770d0109
DTITLE=Claudio Salina - Live at Lisanza 31 July 2008
DYEAR=2008
DGENRE=Jazz
TTITLE0=Theme for Verio
TTITLE1=Ritorno Da
TTITLE2=Shining Heart
TTITLE3=Our Queen
TTITLE4=Old Friend
TTITLE5=Magench
TTITLE6=Stella by Starlight
TTITLE7=The House of the Dream
TTITLE8=Tenor Madness
EXTD=YEAR: 2008
EXTT0=
EXTT1=
EXTT2=
EXTT3=
EXTT4=
EXTT5=
EXTT6=
EXTT7=
EXTT8=
PLAYORDER=
